<?xml version="1.0" encoding="UTF-8"?>
<svg version="1.1" xmlns="http://www.w3.org/2000/svg" width="150" height="150">
<path d="M0 0 C49.5 0 99 0 150 0 C150 49.5 150 99 150 150 C100.5 150 51 150 0 150 C0 100.5 0 51 0 0 Z " fill="#FCFCFC" transform="translate(0,0)"/>
<path d="M0 0 C1.65 0 3.3 0 5 0 C8 5.75 8 5.75 8 8 C10.71224618 6.38731308 13.37352812 4.75098126 16 3 C17.60725635 6.21451269 17.05748185 9.43612536 17 13 C18.093125 13.04125 19.18625 13.0825 20.3125 13.125 C34.46058231 14.96176858 49.82171062 28.36896158 58.640625 38.97265625 C66.18955328 49.1713346 68.76889379 61.54127418 69 74 C70.33804688 74.07347656 70.33804688 74.07347656 71.703125 74.1484375 C72.87359375 74.22320312 74.0440625 74.29796875 75.25 74.375 C76.41015625 74.44460937 77.5703125 74.51421875 78.765625 74.5859375 C81.70694334 74.96248308 83.49949011 75.4774123 86 77 C85.8125 78.875 85.8125 78.875 85 81 C81.25961338 82.89729756 77.84126149 83.35112562 73.6875 83.625 C72.08455078 83.73714844 72.08455078 83.73714844 70.44921875 83.8515625 C69.23685547 83.92503906 69.23685547 83.92503906 68 84 C68.04125 84.94875 68.0825 85.8975 68.125 86.875 C68.04501285 96.81340354 65.16307853 105.83692147 58 113 C58.26944289 115.60461459 58.97567446 116.96789028 60.5625 119.0625 C62.7695693 123.57259813 62.23340224 128.06397486 62 133 C59.64453125 132.74609375 59.64453125 132.74609375 57 132 C55.63671875 130.22265625 55.63671875 130.22265625 54.6875 128.0625 C54.36136719 127.35222656 54.03523438 126.64195312 53.69921875 125.91015625 C53 124 53 124 53 122 C51.91203125 122.54269531 50.8240625 123.08539063 49.703125 123.64453125 C32.67716243 132.00665943 14.08767359 137.17364119 -4.8125 131.375 C-9.33453098 129.55834594 -13.27177647 127.097211 -17.16015625 124.171875 C-19.05816069 122.73138847 -19.05816069 122.73138847 -22 123 C-22.45890625 123.97582031 -22.9178125 124.95164062 -23.390625 125.95703125 C-24.00987674 127.24244775 -24.6296985 128.52758975 -25.25 129.8125 C-25.55035156 130.45509766 -25.85070313 131.09769531 -26.16015625 131.75976562 C-27.92849812 135.3905101 -29.38718765 138.05630695 -33 140 C-33.99 140 -34.98 140 -36 140 C-36.43527515 134.12378547 -34.47218194 129.78256783 -32.1328125 124.56640625 C-30.40484823 120.54271802 -29.51188304 117.38020742 -30 113 C-30.5775 112.29875 -31.155 111.5975 -31.75 110.875 C-35.21783886 106.44387257 -38 99.72865487 -38 94 C-39.09699219 94.03480469 -40.19398437 94.06960937 -41.32421875 94.10546875 C-42.77863045 94.13361865 -44.2330588 94.16091752 -45.6875 94.1875 C-46.40873047 94.21263672 -47.12996094 94.23777344 -47.87304688 94.26367188 C-52.47589338 94.32672457 -55.30307233 93.77816458 -59 91 C-58.67 89.68 -58.34 88.36 -58 87 C-52.72 87 -47.44 87 -42 87 C-42.04640625 85.23914063 -42.0928125 83.47828125 -42.140625 81.6640625 C-42.17816639 79.31772541 -42.21456399 76.97136983 -42.25 74.625 C-42.28351562 73.46871094 -42.31703125 72.31242187 -42.3515625 71.12109375 C-42.51545335 56.61675348 -36.42257131 46.71052133 -26.6875 36.25 C-18.51162133 28.5365579 -7.47787561 22 4 22 C3.71125 21.16597656 3.4225 20.33195312 3.125 19.47265625 C0.89110897 12.70117406 -0.48317823 7.12687895 0 0 Z " fill="#0B0B0B" transform="translate(62,5)"/>
<path d="M0 0 C2.51353502 0.36372969 3.74398487 0.73616762 5.53515625 2.58203125 C9.66097268 8.60720051 13.269643 14.86729361 16.8125 21.25 C17.29275635 22.11343018 17.7730127 22.97686035 18.26782227 23.86645508 C21.99058343 30.69206737 24.31717506 36.0706234 24 44 C18.06 44.495 18.06 44.495 12 45 C12 45.66 12 46.32 12 47 C12.66 47 13.32 47 14 47 C14.42023438 47.66644531 14.84046875 48.33289063 15.2734375 49.01953125 C15.84320313 49.67308594 16.41296875 50.32664063 17 51 C19.67722624 51.06023349 19.67722624 51.06023349 22.625 50.6875 C25.84765625 50.81640625 25.84765625 50.81640625 29 52 C33.22128862 56.81437448 35.55749465 63.15329442 38 69 C38.29438965 69.66717041 38.5887793 70.33434082 38.89208984 71.02172852 C41.75454297 77.51023874 41.75454297 77.51023874 41 81 C37.65535188 84.05538125 34.3676369 85.92664818 30.1875 87.625 C29.21167969 88.02976562 28.23585937 88.43453125 27.23046875 88.8515625 C13.51209124 93.72847059 -2.61894519 94.27462975 -16 88 C-19.51615663 85.87299851 -22.79772102 83.57338897 -26 81 C-25.36519395 75.077822 -23.78907028 69.71172256 -21.9375 64.0625 C-21.65583984 63.18787109 -21.37417969 62.31324219 -21.08398438 61.41210938 C-20.39434445 59.27305673 -19.69959171 57.13581421 -19 55 C-11.636197 54.12344438 -4.41509934 53.88533352 3 54 C1.57764938 50.86295377 1.57764938 50.86295377 -1 48 C-4.04745819 47.54104545 -6.2497965 47.4182722 -9.25 47.625 C-9.99507812 47.65207031 -10.74015625 47.67914063 -11.5078125 47.70703125 C-13.33978993 47.77749192 -15.17027151 47.88511007 -17 48 C-14.88789639 40.32185705 -12.09562701 33.04364654 -9.0625 25.6875 C-5.61707662 17.22087322 -2.35604225 8.84394964 0 0 Z " fill="#FCFAFA" transform="translate(69,40)"/>
<path d="M0 0 C13.3225952 1.86983792 24.79719303 9.48640405 34 19 C34.59425781 19.59683594 35.18851563 20.19367187 35.80078125 20.80859375 C44.50979964 30.16592617 47.52252313 43.77775967 47.10546875 56.26953125 C47.07066406 56.84058594 47.03585938 57.41164062 47 58 C45.99839844 58.06058594 44.99679688 58.12117188 43.96484375 58.18359375 C42.62238669 58.26808405 41.27993928 58.35272768 39.9375 58.4375 C38.62652344 58.51871094 37.31554687 58.59992188 35.96484375 58.68359375 C32.26336762 58.97898249 28.66629552 59.43265388 25 60 C23.18906161 55.82837406 21.46579934 51.64038556 19.8059082 47.40576172 C14.8240042 34.85214842 8.6750848 22.71729813 1.68359375 11.16015625 C-0.56231346 6.94452068 -0.32697008 4.65932365 0 0 Z " fill="#F9F6F6" transform="translate(77,23)"/>
<path d="M0 0 C2.51353502 0.36372969 3.74398487 0.73616762 5.53515625 2.58203125 C9.66097268 8.60720051 13.269643 14.86729361 16.8125 21.25 C17.29275635 22.11343018 17.7730127 22.97686035 18.26782227 23.86645508 C21.99058343 30.69206737 24.31717506 36.0706234 24 44 C18.06 44.495 18.06 44.495 12 45 C12 45.66 12 46.32 12 47 C12.66 47 13.32 47 14 47 C14.42023438 47.66644531 14.84046875 48.33289063 15.2734375 49.01953125 C15.84320313 49.67308594 16.41296875 50.32664063 17 51 C19.67722624 51.06023349 19.67722624 51.06023349 22.625 50.6875 C25.84765625 50.81640625 25.84765625 50.81640625 29 52 C33.22128862 56.81437448 35.55749465 63.15329442 38 69 C38.29438965 69.66717041 38.5887793 70.33434082 38.89208984 71.02172852 C41.75454297 77.51023874 41.75454297 77.51023874 41 81 C37.52240284 84.58297889 33.56553714 86.20959328 29 88 C29 87.34 29 86.68 29 86 C27.35 86 25.7 86 24 86 C24 85.67 24 85.34 24 85 C24.99580078 84.81824219 24.99580078 84.81824219 26.01171875 84.6328125 C30.53424459 83.77452292 34.79938524 82.96028689 39 81 C37.45730076 76.27934033 35.92205381 71.58335908 34 67 C33.34 68.65 32.68 70.3 32 72 C29.375 72.125 29.375 72.125 26 71 C22.93143893 67.07783441 20.72718559 62.66374661 18.73828125 58.11328125 C16.48982208 54.08626562 13.59076714 51.14842033 10.375 47.875 C4.34372439 41.59405181 -0.98782795 35.12046665 -6 28 C-8.39613804 31.83221894 -8.39613804 31.83221894 -8.5 36.0625 C-6.53303065 38.60316875 -4.29831288 40.7539215 -2 43 C-0.88136893 44.21601778 0.22264201 45.44562872 1.3125 46.6875 C1.82425781 47.26886719 2.33601563 47.85023437 2.86328125 48.44921875 C4 50 4 50 4 52 C0.125 50.25 0.125 50.25 -1 48 C-6.28 48 -11.56 48 -17 48 C-14.83840293 40.32455859 -12.10028378 33.05494047 -9.0625 25.6875 C-5.61707662 17.22087322 -2.35604225 8.84394964 0 0 Z " fill="#F8F6F6" transform="translate(69,40)"/>
<path d="M0 0 C-0.60419968 3.27005251 -1.37510724 6.36323349 -2.44287109 9.51147461 C-2.73342377 10.37264389 -3.02397644 11.23381317 -3.32333374 12.12107849 C-3.63686798 13.03889603 -3.95040222 13.95671356 -4.2734375 14.90234375 C-4.76005356 16.33532555 -4.76005356 16.33532555 -5.25650024 17.79725647 C-5.94251954 19.81419189 -6.63016884 21.83057353 -7.31933594 23.84643555 C-8.36942511 26.9211763 -9.41157506 29.99852962 -10.453125 33.07617188 C-11.12191498 35.03922639 -11.79117049 37.00212237 -12.4609375 38.96484375 C-12.77042328 39.88063705 -13.07990906 40.79643036 -13.39877319 41.73997498 C-17.40531111 53.40531111 -17.40531111 53.40531111 -21 57 C-23.74485593 57.14507695 -26.38480543 57.18652423 -29.125 57.125 C-29.87910156 57.11597656 -30.63320313 57.10695312 -31.41015625 57.09765625 C-33.27357254 57.0740687 -35.13682593 57.03819719 -37 57 C-40.36310472 50.27379057 -38.80711547 36.98232745 -36.5 30 C-31.11311753 17.76054619 -22.7632883 9.87921834 -11.3125 3.625 C-10.65822021 3.26639893 -10.00394043 2.90779785 -9.32983398 2.53833008 C-5.8829571 0.72937161 -3.97397064 0 0 0 Z " fill="#F8F5F5" transform="translate(63,33)"/>
<path d="M0 0 C3.28615925 3.08077429 6.09499446 6.32697736 8.875 9.875 C11.30144954 12.95700063 13.73886039 15.84038451 16.5625 18.5625 C23.25400255 25.10192294 27.71901318 31.86014383 31.34765625 40.49609375 C33.4733918 43.71736205 35.31763261 44.14707995 39 45 C39.33 43.02 39.66 41.04 40 39 C43.64279963 40.82139982 44.68328929 45.30693995 46 49 C46.25 52.0625 46.25 52.0625 46 54 C40.60931587 57.59378942 37.46326465 58.45356243 31 58 C29.45723979 55.20414068 28.74850848 52.89832099 28.3125 49.75 C27.53698404 46.05859147 26.45320164 44.03392047 23.86328125 41.30859375 C19.14036948 36.13221948 15.15433416 30.48922927 11.07421875 24.80273438 C7.95963978 20.50901569 4.88317094 16.61607453 1 13 C-0.33333333 11.66666667 -1.66666667 10.33333333 -3 9 C-2.01 6.03 -1.02 3.06 0 0 Z " fill="#ED0E0F" transform="translate(62,67)"/>
<path d="M0 0 C4.74011339 1.38934358 6.41032445 3.37738412 9.625 7.0625 C9.17303755 8.66847325 8.71317673 10.27222508 8.25 11.875 C7.86714844 13.21498047 7.86714844 13.21498047 7.4765625 14.58203125 C6.625 17.0625 6.625 17.0625 4.625 20.0625 C2 20.75 2 20.75 -0.375 21.0625 C-0.60928313 25.8522321 -0.60928313 25.8522321 1.625 30.0625 C1.28970342 34.19782448 -0.43763142 37.4404631 -2.375 41.0625 C-4.025 41.0625 -5.675 41.0625 -7.375 41.0625 C-7.49617188 39.94230469 -7.61734375 38.82210937 -7.7421875 37.66796875 C-7.91103267 36.19526364 -8.08032697 34.72260996 -8.25 33.25 C-8.32863281 32.51201172 -8.40726563 31.77402344 -8.48828125 31.01367188 C-8.91960286 27.34743819 -9.2946783 25.18298255 -11.375 22.0625 C-12.55171954 15.37161799 -10.76449105 8.85811124 -7.375 3.0625 C-4.63343737 0.52627708 -3.83622371 0.07104118 0 0 Z " fill="#F70404" transform="translate(44.375,46.9375)"/>
<path d="M0 0 C0.33 0 0.66 0 1 0 C1 2.97 1 5.94 1 9 C2.32 9.33 3.64 9.66 5 10 C5.85298376 13.67387495 6.10789471 17.0447393 6.0625 20.8125 C6.05347656 21.78832031 6.04445313 22.76414062 6.03515625 23.76953125 C6.02355469 24.50558594 6.01195312 25.24164063 6 26 C7.65 26 9.3 26 11 26 C12.26844651 22.36378667 13.45411618 18.82118677 14 15 C13.67 14.67 13.34 14.34 13 14 C12.875 10.5 12.875 10.5 13 7 C14 6 14 6 16.5625 5.9375 C17.7690625 5.9684375 17.7690625 5.9684375 19 6 C18.5656855 13.52811793 16.46780319 22.53219681 11 28 C8.25514407 28.14507695 5.61519457 28.18652423 2.875 28.125 C2.12089844 28.11597656 1.36679687 28.10695313 0.58984375 28.09765625 C-1.27357254 28.0740687 -3.13682593 28.03819719 -5 28 C-6.75021631 24.49956737 -6.26948691 20.54434036 -6.3125 16.6875 C-6.34150391 15.83220703 -6.37050781 14.97691406 -6.40039062 14.09570312 C-6.44307982 9.8563377 -6.36022624 7.59047394 -4.10546875 3.89453125 C-2 2 -2 2 0 2 C0 1.34 0 0.68 0 0 Z " fill="#F9F7F7" transform="translate(31,62)"/>
<path d="M0 0 C5.833 1.045 5.833 1.045 8 4 C13.93672885 14.92358108 13.27916616 27.9183091 13 40 C10.69 40 8.38 40 6 40 C5.85304688 38.49373047 5.85304688 38.49373047 5.703125 36.95703125 C4.97472253 30.11627221 4.10038707 23.73739811 1.875 17.1875 C-0.1045012 11.32231125 -0.44347461 6.14705091 0 0 Z " fill="#F90303" transform="translate(102,40)"/>
<path d="M0 0 C0.66 0.33 1.32 0.66 2 1 C2.82628906 0.9071875 3.65257813 0.814375 4.50390625 0.71875 C8.22859945 0.4523607 10.5129417 0.5897926 14 2 C18.21264453 6.82920105 20.55498156 13.14727874 23 19 C23.29438965 19.66717041 23.5887793 20.33434082 23.89208984 21.02172852 C26.75454297 27.51023874 26.75454297 27.51023874 26 31 C22.52240284 34.58297889 18.56553714 36.20959328 14 38 C14 37.34 14 36.68 14 36 C12.35 36 10.7 36 9 36 C9 35.67 9 35.34 9 35 C9.66386719 34.87882812 10.32773438 34.75765625 11.01171875 34.6328125 C15.53424459 33.77452292 19.79938524 32.96028689 24 31 C22.45730076 26.27934033 20.92205381 21.58335908 19 17 C18.01 19.475 18.01 19.475 17 22 C14.375 22.125 14.375 22.125 11 21 C7.21644312 16.16394288 4.73381332 10.46762664 2 5 C1.03465478 3.64136599 0.04722851 2.29656863 -1 1 C-0.67 0.67 -0.34 0.34 0 0 Z " fill="#FAF5F3" transform="translate(84,90)"/>
<path d="M0 0 C1.07765625 0.00902344 2.1553125 0.01804687 3.265625 0.02734375 C4.08546875 0.03894531 4.9053125 0.05054687 5.75 0.0625 C6.22359551 7.28483149 5.30797619 13.63837633 1.75 20.0625 C-0.390625 21.37890625 -0.390625 21.37890625 -2.25 22.0625 C-3.40524418 19.69168558 -4.54925208 17.31646043 -5.6875 14.9375 C-6.17573242 13.93976563 -6.17573242 13.93976563 -6.67382812 12.921875 C-8.55584433 8.96382029 -9.76226706 5.47270487 -10.25 1.0625 C-6.78777385 -0.00473961 -3.60960734 -0.03923486 0 0 Z " fill="#F8F8F6" transform="translate(118.25,88.9375)"/>
<path d="M0 0 C5.82136135 7.02232988 7.71933098 16.08029588 7 25 C6.67 25.66 6.34 26.32 6 27 C0.71201818 26.58525633 -2.11690718 25.64775386 -6 22 C-5.3146345 17.00549741 -3.97984349 12.4032406 -2.4375 7.625 C-2.20353516 6.88894531 -1.96957031 6.15289062 -1.72851562 5.39453125 C-1.1559972 3.59518762 -0.57850686 1.79742723 0 0 Z " fill="#F40808" transform="translate(51,98)"/>
<path d="M0 0 C4.11995485 3.86245767 7.56615063 8.12074768 11.0625 12.55078125 C13.325416 15.41136256 15.65072933 18.21024108 18 21 C15 19.5 15 19.5 12 18 C12.59861742 20.35171131 13.26924352 22.6859378 14 25 C14.66 25.33 15.32 25.66 16 26 C15.34 26.99 14.68 27.98 14 29 C13.40832031 28.19175781 12.81664063 27.38351563 12.20703125 26.55078125 C11.40907382 25.47119178 10.61088428 24.39177384 9.8125 23.3125 C9.03519531 22.25675781 8.25789063 21.20101562 7.45703125 20.11328125 C5.13389253 17.16965398 2.70105973 14.59496246 0 12 C-0.99 11.01 -1.98 10.02 -3 9 C-2.01 6.03 -1.02 3.06 0 0 Z " fill="#E51A1D" transform="translate(62,67)"/>
<path d="M0 0 C0.33 0.66 0.66 1.32 1 2 C1.66 2 2.32 2 3 2 C2.17016359 3.65967283 1.25179091 5.2747266 0.3125 6.875 C-1.27005866 9.77710728 -1.27005866 9.77710728 -0.5 12.0625 C1.46696935 14.60316875 3.70168712 16.7539215 6 19 C7.11863107 20.21601778 8.22264201 21.44562872 9.3125 22.6875 C9.82425781 23.26886719 10.33601563 23.85023437 10.86328125 24.44921875 C12 26 12 26 12 28 C8.125 26.25 8.125 26.25 7 24 C1.72 24 -3.56 24 -9 24 C-6.7183577 15.63397824 -3.51779922 7.90081767 0 0 Z " fill="#F5F1F0" transform="translate(61,64)"/>
<path d="M0 0 C3.01399879 4.52099819 3.12108347 7.86032065 3.0625 13.25 C3.05347656 14.32765625 3.04445312 15.4053125 3.03515625 16.515625 C3.02355469 17.33546875 3.01195312 18.1553125 3 19 C2.360625 19.103125 1.72125 19.20625 1.0625 19.3125 C0.381875 19.539375 -0.29875 19.76625 -1 20 C-1.33 20.99 -1.66 21.98 -2 23 C-7.28 23 -12.56 23 -18 23 C-18 22.67 -18 22.34 -18 22 C-13.05 22 -8.1 22 -3 22 C-3.44534231 17.28677455 -3.44534231 17.28677455 -3.9284668 12.57739258 C-4.29374305 8.04662101 -3.68704299 5.6291667 -1 2 C-0.67 1.34 -0.34 0.68 0 0 Z " fill="#1E1D1F" transform="translate(127,59)"/>
<path d="M0 0 C1.33333333 0.66666667 2.66666667 1.33333333 4 2 C4.639375 2.2475 5.27875 2.495 5.9375 2.75 C9.09655772 4.66458043 10.92284199 6.97328404 13 10 C12.8125 12.875 12.8125 12.875 12 15 C10.02 15.33 8.04 15.66 6 16 C3.45800339 13.01591703 2.68526173 10.8178868 2 7 C1.34 6.01 0.68 5.02 0 4 C0 2.68 0 1.36 0 0 Z " fill="#F10909" transform="translate(74,85)"/>
<path d="M0 0 C2 0 2 0 3.5 1.0625 C6.62127005 5.09414048 7.302371 10.01087847 7 15 C4.82145293 11.7321794 3.50239966 8.61941735 2 5 C-1.28528246 11.17234886 -3.09053488 18.0880651 -4 25 C-0.34666857 27.63379708 2.48521602 29.46884894 7 30 C7 30.33 7 30.66 7 31 C4.5 31.875 4.5 31.875 1 32 C-1.92611592 30.29572101 -4.45640495 28.22725962 -7 26 C-6.36519395 20.077822 -4.78907028 14.71172256 -2.9375 9.0625 C-2.65583984 8.18787109 -2.37417969 7.31324219 -2.08398438 6.41210938 C-1.39434445 4.27305673 -0.69959171 2.13581421 0 0 Z " fill="#F4D1CE" transform="translate(50,95)"/>
<path d="M0 0 C3.63 0 7.26 0 11 0 C10.54901762 1.93922422 10.08894441 3.87633594 9.625 5.8125 C9.36976562 6.89144531 9.11453125 7.97039062 8.8515625 9.08203125 C8 12 8 12 6 15 C4.99267601 13.06629769 3.99436712 11.12789694 3 9.1875 C2.443125 8.10855469 1.88625 7.02960938 1.3125 5.91796875 C0 3 0 3 0 0 Z " fill="#E5E5E5" transform="translate(29,96)"/>
<path d="M0 0 C0.33 0.66 0.66 1.32 1 2 C0 5 0 5 -1.875 6.6875 C-6.49137278 11.71119979 -7.35250592 17.37305503 -7.10546875 24.01953125 C-7.07066406 24.67308594 -7.03585938 25.32664062 -7 26 C-7 26.99 -7 27.98 -7 29 C-7.66 28.67 -8.32 28.34 -9 28 C-9.40729228 25.67843403 -9.74438677 23.3431213 -10 21 C-11.98 21.99 -11.98 21.99 -14 23 C-12.93501154 13.59490714 -6.85863859 6.18950312 0 0 Z " fill="#FBE7E5" transform="translate(41,43)"/>
<path d="M0 0 C3.80521664 1.57885446 6.28658415 3.98693902 9.1875 6.875 C10.50814453 8.17050781 10.50814453 8.17050781 11.85546875 9.4921875 C13.84161518 11.81478496 14.76395215 12.99207603 15 16 C14.67 16.33 14.34 16.66 14 17 C13.76572222 19.01594582 13.58663876 21.038474 13.4375 23.0625 C13.35371094 24.16722656 13.26992187 25.27195312 13.18359375 26.41015625 C13.12300781 27.26480469 13.06242187 28.11945312 13 29 C12.67 29 12.34 29 12 29 C11.90203125 28.154375 11.8040625 27.30875 11.703125 26.4375 C10.21339141 14.77799759 10.21339141 14.77799759 3.3125 5.75 C2.549375 5.1725 1.78625 4.595 1 4 C0.1875 1.75 0.1875 1.75 0 0 Z " fill="#FED6D4" transform="translate(102,35)"/>
<path d="M0 0 C5.833 1.045 5.833 1.045 8 4 C10.81307833 9.31359241 11.31493466 13.0162414 11 19 C9.22222721 15.71795793 8.04555792 12.3379754 6.87890625 8.8046875 C6.0152524 6.64531662 6.0152524 6.64531662 3 5 C3.33 9.95 3.66 14.9 4 20 C0.63641561 16.63641561 0.07304938 12.69839798 -0.125 8.09375 C-0.125 5.39286838 -0.08786317 2.69935172 0 0 Z " fill="#DE171E" transform="translate(102,40)"/>
<path d="M0 0 C3.4819752 0 5.99728562 0.21137279 8.79296875 2.41015625 C10.25702048 3.8811631 11.63569318 5.43603852 13 7 C12.54803755 8.60597325 12.08817673 10.20972508 11.625 11.8125 C11.36976562 12.70582031 11.11453125 13.59914063 10.8515625 14.51953125 C10 17 10 17 8 20 C6.68 19.34 5.36 18.68 4 18 C5.32 18 6.64 18 8 18 C8.144375 17.071875 8.28875 16.14375 8.4375 15.1875 C9 12 9 12 10 9 C9.01 9.33 8.02 9.66 7 10 C6.67 9.34 6.34 8.68 6 8 C6.66 8 7.32 8 8 8 C7.24849977 4.72226496 7.24849977 4.72226496 4 3 C2.0103005 2.60986284 0.00980131 2.26797351 -2 2 C-1.34 1.34 -0.68 0.68 0 0 Z " fill="#E51517" transform="translate(41,47)"/>
<path d="M0 0 C3.86128 4.440472 6.41321702 10.06608509 7.5625 15.8125 C6.69205087 19.19757993 4.9018647 20.14774593 2 22 C-0.30587045 23.11482166 -2.61162052 24.0633806 -5 25 C-5 24.34 -5 23.68 -5 23 C-6.65 23 -8.3 23 -10 23 C-10 22.67 -10 22.34 -10 22 C-9.33613281 21.87882812 -8.67226562 21.75765625 -7.98828125 21.6328125 C-3.46575541 20.77452292 0.79938524 19.96028689 5 18 C3.59252197 13.59788787 2.17567759 9.2688188 0.25 5.0625 C-0.1625 4.051875 -0.575 3.04125 -1 2 C-0.67 1.34 -0.34 0.68 0 0 Z " fill="#F3CECD" transform="translate(103,103)"/>
<path d="M0 0 C2.0625 0.4375 2.0625 0.4375 4 1 C3.40546697 10.59453303 3.40546697 10.59453303 0 14 C-3.1097561 6.32926829 -3.1097561 6.32926829 -2.125 3.375 C-1 1 -1 1 0 0 Z " fill="#131213" transform="translate(125,96)"/>
<path d="M0 0 C1.32 0.66 2.64 1.32 4 2 C0.92482916 13.52164009 0.92482916 13.52164009 -1 19 C-1.33 18.01 -1.66 17.02 -2 16 C-3.65 16.33 -5.3 16.66 -7 17 C-7.33 18.65 -7.66 20.3 -8 22 C-8.33 22 -8.66 22 -9 22 C-9.125 19.125 -9.125 19.125 -9 16 C-8.34 15.34 -7.68 14.68 -7 14 C-5.68 14 -4.36 14 -3 14 C-2.29866401 12.42274653 -1.614417 10.83788667 -0.9375 9.25 C-0.55464844 8.36828125 -0.17179687 7.4865625 0.22265625 6.578125 C1.04600008 3.84743691 0.9773992 2.63098653 0 0 Z " fill="#F4C7C1" transform="translate(52,52)"/>
<path d="M0 0 C0 0.99 0 1.98 0 3 C0.66 3.66 1.32 4.32 2 5 C-4.4 9.06153846 -4.4 9.06153846 -7.4375 8.75 C-7.953125 8.5025 -8.46875 8.255 -9 8 C-9 7.01 -9 6.02 -9 5 C-7.5390625 3.61328125 -7.5390625 3.61328125 -5.625 2.3125 C-4.68527344 1.65701172 -4.68527344 1.65701172 -3.7265625 0.98828125 C-2 0 -2 0 0 0 Z " fill="#131415" transform="translate(47,34)"/>
<path d="M0 0 C1.485 0.99 1.485 0.99 3 2 C3.51171875 5.2578125 3.51171875 5.2578125 3.6875 9.125 C3.75324219 10.40632813 3.81898437 11.68765625 3.88671875 13.0078125 C3.92410156 13.99523437 3.96148437 14.98265625 4 16 C5.32 16 6.64 16 8 16 C8 11.38 8 6.76 8 2 C8.33 2 8.66 2 9 2 C9 7.28 9 12.56 9 18 C6.69 18 4.38 18 2 18 C1.34 12.06 0.68 6.12 0 0 Z " fill="#E03D3D" transform="translate(106,62)"/>
<path d="M0 0 C1.859375 0.22265625 1.859375 0.22265625 4 1 C5.265625 2.99609375 5.265625 2.99609375 6.25 5.4375 C6.58515625 6.24058594 6.9203125 7.04367188 7.265625 7.87109375 C8 10 8 10 8 12 C7.01 12 6.02 12 5 12 C1 7.77142857 1 7.77142857 1 4 C0.34 4.66 -0.32 5.32 -1 6 C-0.67 4.02 -0.34 2.04 0 0 Z " fill="#F50507" transform="translate(62,70)"/>
<path d="M0 0 C0.33 0.66 0.66 1.32 1 2 C1.66 2 2.32 2 3 2 C2.17016359 3.65967283 1.25179091 5.2747266 0.3125 6.875 C-1.33170608 9.82852843 -1.33170608 9.82852843 -0.25 12.25 C0.1625 12.8275 0.575 13.405 1 14 C1.33 14.66 1.66 15.32 2 16 C1.01 16 0.02 16 -1 16 C-1.66 15.34 -2.32 14.68 -3 14 C-3 14.66 -3 15.32 -3 16 C-4.98 16.99 -4.98 16.99 -7 18 C-5.64474464 13.78224268 -4.09799886 9.70578678 -2.375 5.625 C-1.92898437 4.56539063 -1.48296875 3.50578125 -1.0234375 2.4140625 C-0.68570313 1.61742188 -0.34796875 0.82078125 0 0 Z " fill="#EDCEC7" transform="translate(61,64)"/>
<path d="M0 0 C0.66 0.99 1.32 1.98 2 3 C1.35305692 4.60033289 0.68794297 6.195511 -0.0625 7.75 C-1.96097031 12.30632874 -2.88916377 17.20213286 -4 22 C-2.35 22.33 -0.7 22.66 1 23 C-0.98 23.99 -0.98 23.99 -3 25 C-4.5625 23.875 -4.5625 23.875 -6 22 C-5.51962121 17.01607007 -3.96766714 12.36551779 -2.4375 7.625 C-2.20353516 6.88894531 -1.96957031 6.15289062 -1.72851562 5.39453125 C-1.1559972 3.59518762 -0.57850686 1.79742723 0 0 Z " fill="#D6232A" transform="translate(51,98)"/>
<path d="M0 0 C1.40629862 2.81259725 0.52778783 4.15159789 -0.375 7.125 C-1.71923779 11.78379672 -2.54516647 16.17876456 -3 21 C-3.66 20.67 -4.32 20.34 -5 20 C-5.46857004 12.73716432 -4.22574137 7.52921144 -1 1 C-0.67 0.67 -0.34 0.34 0 0 Z " fill="#E42D33" transform="translate(38,49)"/>
<path d="M0 0 C0.33 0 0.66 0 1 0 C1 6.27 1 12.54 1 19 C-0.32 19 -1.64 19 -3 19 C-3.33 16.69 -3.66 14.38 -4 12 C-3.01 12.33 -2.02 12.66 -1 13 C-0.67 8.71 -0.34 4.42 0 0 Z " fill="#EB0A0C" transform="translate(113,59)"/>
<path d="M0 0 C2.09782787 2.09782787 2.6509396 3.3799207 3.625 6.125 C3.88539062 6.84945312 4.14578125 7.57390625 4.4140625 8.3203125 C4.70410156 9.15175781 4.70410156 9.15175781 5 10 C4.01 10.495 4.01 10.495 3 11 C2.34 9.35 1.68 7.7 1 6 C0.34 6 -0.32 6 -1 6 C-1.66 7.32 -2.32 8.64 -3 10 C-4.5 8.625 -4.5 8.625 -6 7 C-6 6.34 -6 5.68 -6 5 C-4.35 4.67 -2.7 4.34 -1 4 C-0.67 2.68 -0.34 1.36 0 0 Z " fill="#E61B1D" transform="translate(87,96)"/>
<path d="M0 0 C0 0.33 0 0.66 0 1 C-1.98 1 -3.96 1 -6 1 C-5.938125 2.423125 -5.938125 2.423125 -5.875 3.875 C-6 7 -6 7 -8 9 C-9.6627026 6.32521756 -10.99983813 4.0004856 -12 1 C-8.0186217 -0.3271261 -4.14954773 -0.06915913 0 0 Z " fill="#D47C83" transform="translate(120,89)"/>
<path d="M0 0 C2.38171031 3.80273074 2.65510945 7.89003197 3.125 12.25 C3.21136719 12.99507812 3.29773438 13.74015625 3.38671875 14.5078125 C3.59786867 16.33777846 3.79984545 18.16879879 4 20 C0.63641561 16.63641561 0.07304938 12.69839798 -0.125 8.09375 C-0.125 5.39286838 -0.08786317 2.69935172 0 0 Z " fill="#E72F31" transform="translate(102,40)"/>
<path d="M0 0 C2 0 2 0 3.5 1.0625 C6.62127005 5.09414048 7.302371 10.01087847 7 15 C4.82145293 11.7321794 3.50239966 8.61941735 2 5 C1.01 5.66 0.02 6.32 -1 7 C-0.67 4.69 -0.34 2.38 0 0 Z " fill="#FADBDB" transform="translate(50,95)"/>
<path d="M0 0 C3.21043882 1.38188453 5.04936365 2.92421903 7.25 5.625 C8.03117187 6.57246094 8.03117187 6.57246094 8.828125 7.5390625 C9.40820312 8.26222656 9.40820312 8.26222656 10 9 C9.01 10.485 9.01 10.485 8 12 C7.5875 11.236875 7.175 10.47375 6.75 9.6875 C5.19074729 6.94825089 5.19074729 6.94825089 2.875 5.4375 C0.65829272 3.73802442 0.37406983 2.71200625 0 0 Z " fill="#E3CAC6" transform="translate(102,35)"/>
<path d="M0 0 C0.66 0.33 1.32 0.66 2 1 C1.39301257 5.12751449 -0.03810791 8.3321148 -2 12 C-3.65 12 -5.3 12 -7 12 C-6.67 10.68 -6.34 9.36 -6 8 C-5.67 8.66 -5.34 9.32 -5 10 C-4.34 10 -3.68 10 -3 10 C-3 9.01 -3 8.02 -3 7 C-2.34 7 -1.68 7 -1 7 C-0.67 4.69 -0.34 2.38 0 0 Z " fill="#DE2C2E" transform="translate(44,76)"/>
<path d="M0 0 C1.66666667 1.66666667 3.33333333 3.33333333 5 5 C5.928125 5.886875 6.85625 6.77375 7.8125 7.6875 C10 10 10 10 10 12 C5.57883696 10.64908907 3.51923342 8.86882275 1 5 C0.25 2.1875 0.25 2.1875 0 0 Z " fill="#FDD4D1" transform="translate(79,100)"/>
<path d="M0 0 C0.99 0.66 1.98 1.32 3 2 C2.54803755 3.60597325 2.08817673 5.20972508 1.625 6.8125 C1.36976562 7.70582031 1.11453125 8.59914063 0.8515625 9.51953125 C0 12 0 12 -2 15 C-3.32 14.34 -4.64 13.68 -6 13 C-4.68 13 -3.36 13 -2 13 C-1.26167392 8.67551867 -0.60825035 4.34464536 0 0 Z " fill="#DB1F23" transform="translate(51,52)"/>
<path d="M0 0 C0.12375 0.639375 0.2475 1.27875 0.375 1.9375 C0.684375 2.9584375 0.684375 2.9584375 1 4 C1.66 4.33 2.32 4.66 3 5 C2 7 1 9 0 11 C-2.4375 10.625 -2.4375 10.625 -5 10 C-5.33 9.34 -5.66 8.68 -6 8 C-4.35 8 -2.7 8 -1 8 C-0.67 5.36 -0.34 2.72 0 0 Z " fill="#F2E1E0" transform="translate(58,118)"/>
<path d="M0 0 C1.62433191 2.50076998 2.07333427 3.58982529 1.5390625 6.578125 C1.23742188 7.45984375 0.93578125 8.3415625 0.625 9.25 C0.32851563 10.14203125 0.03203125 11.0340625 -0.2734375 11.953125 C-0.51320312 12.62859375 -0.75296875 13.3040625 -1 14 C-1.66 13.67 -2.32 13.34 -3 13 C-2.68817931 11.58318366 -2.37551263 10.16655349 -2.0625 8.75 C-1.88847656 7.96109375 -1.71445312 7.1721875 -1.53515625 6.359375 C-1.052444 4.23121297 -0.53836822 2.11467158 0 0 Z " fill="#E3BDC1" transform="translate(48,100)"/>
<path d="M0 0 C0.66 0.66 1.32 1.32 2 2 C-0.75 7.75 -0.75 7.75 -3 10 C-5.625 10.125 -5.625 10.125 -8 10 C-8 9.34 -8 8.68 -8 8 C-6.35 8 -4.7 8 -3 8 C-2.690625 7.05125 -2.38125 6.1025 -2.0625 5.125 C-1 2 -1 2 0 0 Z " fill="#EDD1CC" transform="translate(45,80)"/>
<path d="M0 0 C0.66 0 1.32 0 2 0 C2 0.99 2 1.98 2 3 C1.67 3.33 1.34 3.66 1 4 C1.33 4.66 1.66 5.32 2 6 C0.68 7.32 -0.64 8.64 -2 10 C-2.6875 8.375 -2.6875 8.375 -3 6 C-1.5625 2.75 -1.5625 2.75 0 0 Z " fill="#E5E5E4" transform="translate(30,56)"/>
<path d="M0 0 C0.99 0 1.98 0 3 0 C2.75 2.875 2.75 2.875 2 6 C-0.0625 7.375 -0.0625 7.375 -2 8 C-2.125 5.125 -2.125 5.125 -2 2 C-1.34 1.34 -0.68 0.68 0 0 Z " fill="#050504" transform="translate(124,58)"/>
<path d="M0 0 C0.66 0.66 1.32 1.32 2 2 C-1.465 4.97 -1.465 4.97 -5 8 C-5 7.34 -5 6.68 -5 6 C-5.66 5.67 -6.32 5.34 -7 5 C-5.68 4.34 -4.36 3.68 -3 3 C-3 2.34 -3 1.68 -3 1 C-2.01 0.67 -1.02 0.34 0 0 Z " fill="#030506" transform="translate(40,41)"/>
<path d="M0 0 C4.875 2.75 4.875 2.75 6 5 C5.01 5 4.02 5 3 5 C2.34 4.34 1.68 3.68 1 3 C1 3.66 1 4.32 1 5 C-0.98 5.99 -0.98 5.99 -3 7 C-1.125 1.125 -1.125 1.125 0 0 Z " fill="#E6D8D9" transform="translate(57,75)"/>
<path d="M0 0 C2.51699845 2.51699845 3.10964078 4.57554146 4 8 C3.625 10.375 3.625 10.375 3 12 C0.97649676 8.96474514 0.67875982 7.80573798 0.375 4.3125 C0.30023438 3.50425781 0.22546875 2.69601563 0.1484375 1.86328125 C0.09945312 1.24839844 0.05046875 0.63351563 0 0 Z " fill="#E1262B" transform="translate(53,102)"/>
<path d="M0 0 C4.75286041 4.29290618 4.75286041 4.29290618 5 8 C4.34 8.66 3.68 9.32 3 10 C1.68 7.03 0.36 4.06 -1 1 C-0.67 0.67 -0.34 0.34 0 0 Z " fill="#F7D2D5" transform="translate(109,92)"/>
<path d="M0 0 C4.875 4.625 4.875 4.625 6 8 C2.125 6.25 2.125 6.25 1 4 C-1.01669827 2.86649466 -1.01669827 2.86649466 -3 2 C-2.01 2 -1.02 2 0 2 C0 1.34 0 0.68 0 0 Z " fill="#ECCCCB" transform="translate(67,84)"/>
<path d="M0 0 C0.66 0.33 1.32 0.66 2 1 C3.70363822 1.22622081 5.41328701 1.40888473 7.125 1.5625 C8.03507812 1.64628906 8.94515625 1.73007813 9.8828125 1.81640625 C10.58148438 1.87699219 11.28015625 1.93757813 12 2 C12 2.33 12 2.66 12 3 C4.375 4 4.375 4 1 4 C0.34 3.01 -0.32 2.02 -1 1 C-0.67 0.67 -0.34 0.34 0 0 Z " fill="#DCBEBC" transform="translate(84,90)"/>
<path d="M0 0 C0.66 0 1.32 0 2 0 C2.69710731 1.28650706 3.38242876 2.57940665 4.0625 3.875 C4.63677734 4.95394531 4.63677734 4.95394531 5.22265625 6.0546875 C5.47917969 6.69664063 5.73570313 7.33859375 6 8 C5.67 8.66 5.34 9.32 5 10 C4.16121545 8.71186658 3.32913217 7.41936744 2.5 6.125 C2.0359375 5.40570313 1.571875 4.68640625 1.09375 3.9453125 C0 2 0 2 0 0 Z " fill="#FECEC9" transform="translate(90,101)"/>
<path d="M0 0 C0.99 0.33 1.98 0.66 3 1 C2.67 2.65 2.34 4.3 2 6 C1.01 5.67 0.02 5.34 -1 5 C-0.67 3.35 -0.34 1.7 0 0 Z " fill="#FC0304" transform="translate(86,101)"/>
<path d="M0 0 C0.33 0 0.66 0 1 0 C2.10228696 4.40914783 2.07654536 8.48382401 2 13 C1.67 13 1.34 13 1 13 C1 11.35 1 9.7 1 8 C0.34 8 -0.32 8 -1 8 C-0.67 5.36 -0.34 2.72 0 0 Z " fill="#FBB2B1" transform="translate(35,72)"/>
<path d="M0 0 C2.62187494 1.04874998 3.79371361 1.64931313 5.25 4.125 C5.4975 4.74375 5.745 5.3625 6 6 C5.01 6.33 4.02 6.66 3 7 C0 2.25 0 2.25 0 0 Z " fill="#EAE7E7" transform="translate(111,44)"/>
<path d="M0 0 C0.33 0.66 0.66 1.32 1 2 C0 5 0 5 -3 7 C-3.99 6.67 -4.98 6.34 -6 6 C-4.02 4.02 -2.04 2.04 0 0 Z " fill="#DCCEC9" transform="translate(41,43)"/>
<path d="M0 0 C0.99 0.495 0.99 0.495 2 1 C2 1.99 2 2.98 2 4 C3.65 4.33 5.3 4.66 7 5 C5.02 5.99 5.02 5.99 3 7 C1.5 5.75 1.5 5.75 0 4 C0 2.68 0 1.36 0 0 Z " fill="#DE3134" transform="translate(45,116)"/>
<path d="M0 0 C0.97608217 2.92824652 1.08226668 4.95613276 1 8 C0.01 8 -0.98 8 -2 8 C-1.125 1.125 -1.125 1.125 0 0 Z " fill="#E2CECB" transform="translate(45,113)"/>
<path d="M0 0 C2.15377564 2.62198774 3.40072174 4.64404172 4 8 C3.01 8.495 3.01 8.495 2 9 C0.93347808 6.69631264 -0.06421005 4.35981813 -1 2 C-0.67 1.34 -0.34 0.68 0 0 Z " fill="#E7C2BE" transform="translate(103,103)"/>
<path d="M0 0 C1.37562854 1.28965176 2.70766393 2.62689293 4 4 C4 4.66 4 5.32 4 6 C2.35 6 0.7 6 -1 6 C-0.67 4.02 -0.34 2.04 0 0 Z " fill="#32302F" transform="translate(68,88)"/>
<path d="M0 0 C1.32 0.33 2.64 0.66 4 1 C4 1.66 4 2.32 4 3 C4.66 3 5.32 3 6 3 C6.33 4.32 6.66 5.64 7 7 C6.34 7 5.68 7 5 7 C3.7109375 5.46875 3.7109375 5.46875 2.375 3.5 C1.70597656 2.52546875 1.70597656 2.52546875 1.0234375 1.53125 C0.68570313 1.0259375 0.34796875 0.520625 0 0 Z " fill="#F4D7D2" transform="translate(77,84)"/>
<path d="M0 0 C0.66 0.33 1.32 0.66 2 1 C1.67 2.65 1.34 4.3 1 6 C-0.32 6 -1.64 6 -3 6 C-1.125 1.125 -1.125 1.125 0 0 Z " fill="#F5E6E7" transform="translate(44,41)"/>
</svg>
